<?xml version="1.0" encoding="utf-8"?>
<!-- Generator: Adobe Illustrator 24.0.1, SVG Export Plug-In . SVG Version: 6.00 Build 0)  -->
<svg version="1.1" id="Layer_1" xmlns="http://www.w3.org/2000/svg" xmlns:xlink="http://www.w3.org/1999/xlink" x="0px" y="0px"
	 viewBox="0 0 1276 665" style="enable-background:new 0 0 1276 665;" xml:space="preserve">
<style type="text/css">
	.st0{fill:#383838;}
	.st1{fill:#00AED1;}
	.st2{fill:#DBDDDD;}
	.st3{fill:#C3E8F0;}
	.st4{fill:#8BD9E6;}
	.st5{fill:#0173B1;}
	.st6{fill:#03055C;}
</style>
<path class="st0" d="M120.2,300c0-2.2,1.1-3.3,3.2-3.3h39.3c2.2,0,3.2,1.1,3.2,3.3v50c0.4,5.5,2.8,9.8,7,12.9
	c4.2,3.2,10.2,4.7,17.8,4.7h6.2c4.4,0,7.6,1.5,9.8,4.6c2.2,3.1,3.3,8.1,3.3,15c0,13.3-4.4,19.9-13.1,19.9c-6.5,0-12.4-0.6-17.5-1.8
	c-5.1-1.2-9.6-4-13.6-8.3v2.9c0,13.7-2.1,25.4-6.4,35.1c-4.2,9.7-10.1,17.6-17.4,23.8c-7.4,6.2-16.1,10.8-26.3,13.7
	c-10.1,2.9-20.9,4.4-32.4,4.4c-11.3,0-22-1.5-32.1-4.4c-10.1-2.9-19-7.5-26.6-13.7c-7.6-6.2-13.6-14.3-18.1-24.2
	C2.2,424.9,0,413.1,0,399.3c0-10.9,1.6-22.1,4.7-33.6c3.2-11.5,7.6-21.9,13.2-31c0.9-1.3,2.5-1.6,4.9-1l35.3,11.4
	c1.1,0.4,1.7,1,1.8,1.8c0.1,0.8-0.1,1.6-0.5,2.4c-3.1,6.1-5.9,13-8.5,20.6c-2.6,7.6-3.9,16.2-3.9,25.8c0,7.6,1.1,14,3.3,19.3
	s5.1,9.5,8.7,12.7c3.6,3.3,7.6,5.6,12.1,7c4.5,1.4,9,2.1,13.6,2.1c11.1,0,19.8-3.1,26.1-9.3c6.3-6.2,9.5-16.1,9.5-29.6V300z
	 M69.9,271.9c-2.2,0-3.3-1.1-3.3-3.3v-32c0-2.2,1.1-3.3,3.3-3.3h40.5c2.2,0,3.3,1.1,3.3,3.3v32c0,2.2-1.1,3.3-3.3,3.3H69.9z"/>
<path class="st0" d="M234.2,272.9c0-2.2,1.1-3.3,3.2-3.3h39.3c2.2,0,3.2,1.1,3.2,3.3V350c0.4,5.5,2.8,9.8,7,12.9
	c4.2,3.2,10.2,4.7,17.8,4.7h7.5c4.3,0,7.6,1.5,9.8,4.6c2.2,3.1,3.3,8.1,3.3,15c0,13.3-4.4,19.9-13.1,19.9c-8.3,0-15.5-1-21.6-2.9
	c-6.1-2-11.2-6.4-15.3-13.4c-3.5,7-8.6,11.4-15.4,13.4c-6.8,2-16.2,2.9-28.1,2.9h-33.6c-4.3,0-7.6-1.4-9.8-4.1
	c-2.2-2.7-3.3-7.8-3.3-15.2c0-7.4,1-12.6,3.1-15.7c2.1-3,5.4-4.6,10-4.6h20.3c7,0,11.3-2,13.1-6c1.7-4,2.6-10.9,2.6-20.7V272.9z
	 M213.6,474.1c-2.2,0-3.3-1.1-3.3-3.3v-32c0-2.2,1.1-3.3,3.3-3.3h32.7c2.2,0,3.3,1.1,3.3,3.3v32c0,2.2-1.1,3.3-3.3,3.3H213.6z
	 M263.9,474.1c-2.2,0-3.3-1.1-3.3-3.3v-32c0-2.2,1.1-3.3,3.3-3.3h33c2.2,0,3.3,1.1,3.3,3.3v32c0,2.2-1.1,3.3-3.3,3.3H263.9z"/>
<path class="st0" d="M312.6,407.2c-4.4,0-7.5-1.2-9.3-3.8c-1.8-2.5-2.8-7.4-2.8-14.5c0-7.6,0.9-13.1,2.6-16.3
	c1.7-3.3,4.9-4.9,9.5-4.9h42.1c4.3,0,7.6,1.6,9.8,4.7c2.2,3.2,3.3,8.3,3.3,15.5c0,8.1-1,13.3-3.1,15.7c-2.1,2.4-5.4,3.6-10,3.6
	H312.6z"/>
<path class="st0" d="M354.8,407.2c-4.4,0-7.5-1.2-9.3-3.8c-1.8-2.5-2.8-7.4-2.8-14.5c0-7.6,0.9-13.1,2.6-16.3
	c1.7-3.3,4.9-4.9,9.5-4.9h42.1c4.3,0,7.6,1.6,9.8,4.7c2.2,3.2,3.3,8.3,3.3,15.5c0,8.1-1,13.3-3.1,15.7c-2.1,2.4-5.4,3.6-10,3.6
	H354.8z"/>
<path class="st0" d="M396.9,407.2c-4.4,0-7.5-1.2-9.3-3.8c-1.8-2.5-2.8-7.4-2.8-14.5c0-7.6,0.9-13.1,2.6-16.3
	c1.7-3.3,4.9-4.9,9.5-4.9H439c4.3,0,7.6,1.6,9.8,4.7c2.2,3.2,3.3,8.3,3.3,15.5c0,8.1-1,13.3-3.1,15.7c-2.1,2.4-5.4,3.6-10,3.6H396.9
	z"/>
<path class="st0" d="M392.1,407.2c-4.4,0-7.5-1.2-9.3-3.8c-1.8-2.5-2.8-7.4-2.8-14.5c0-7.6,0.9-13.1,2.6-16.3
	c1.7-3.3,4.9-4.9,9.5-4.9h42.1c4.3,0,7.6,1.6,9.8,4.7c2.2,3.2,3.3,8.3,3.3,15.5c0,8.1-1,13.3-3.1,15.7c-2.1,2.4-5.4,3.6-10,3.6
	H392.1z"/>
<path class="st0" d="M434.3,407.2c-4.4,0-7.5-1.2-9.3-3.8c-1.8-2.5-2.8-7.4-2.8-14.5c0-7.6,0.9-13.1,2.6-16.3
	c1.7-3.3,4.9-4.9,9.5-4.9h42.1c4.3,0,7.6,1.6,9.8,4.7c2.2,3.2,3.3,8.3,3.3,15.5c0,8.1-1,13.3-3.1,15.7c-2.1,2.4-5.4,3.6-10,3.6
	H434.3z"/>
<path class="st0" d="M476.4,407.2c-4.4,0-7.5-1.2-9.3-3.8c-1.8-2.5-2.8-7.4-2.8-14.5c0-7.6,0.9-13.1,2.6-16.3
	c1.7-3.3,4.9-4.9,9.5-4.9h42.1c4.3,0,7.6,1.6,9.8,4.7c2.2,3.2,3.3,8.3,3.3,15.5c0,8.1-1,13.3-3.1,15.7c-2.1,2.4-5.4,3.6-10,3.6
	H476.4z"/>
<path class="st0" d="M670.6,363.3c4.5,2.9,10.5,4.4,18.1,4.4h7.2c4.3,0,7.6,1.5,9.8,4.6c2.2,3.1,3.3,8.1,3.3,15
	c0,13.3-4.4,19.9-13.1,19.9c-9.2,0-17-1.2-23.5-3.6c-6.5-2.4-11.9-7.4-16-15c-3.9,7-9.4,11.8-16.3,14.5c-7,2.7-15.5,4.1-25.5,4.1
	h-96c-4.4,0-7.6-1.5-9.8-4.6c-2.2-3.1-3.3-8.5-3.3-16.3c0-7.4,1-12.4,3.1-14.9c2.1-2.5,5.4-3.8,10-3.8h73.2c5.2,0,9.5-0.3,12.7-1
	c3.3-0.7,5.8-1.8,7.5-3.4"/>
<path class="st0" d="M797.7,409.5c-11.6,0-22.2-1.5-31.9-4.4c-9.7-2.9-17.8-8.1-24.4-15.5c-2.4,3.9-5.6,7.1-9.5,9.5
	c-3.9,2.4-8,4.2-12.2,5.4c-4.3,1.2-8.4,2-12.6,2.3c-4.1,0.3-7.8,0.5-11.1,0.5c-4.4,0-7.6-1.4-9.8-4.2c-2.2-2.8-3.3-7.8-3.3-15
	c0-7.4,1-12.6,2.9-15.7c2-3.1,5.3-4.6,10.1-4.6h9.5c5,0,9.5-2.1,13.6-6.2c4-4.1,6.3-11.9,6.7-23.2v-6.5c0-21.8,6.2-38.5,18.7-50.1
	c12.4-11.7,30.2-17.5,53.4-17.5c22,0,39.6,6.2,52.7,18.5c13.1,12.3,19.6,30.9,19.6,55.7c0,1.5-0.1,3-0.2,4.4
	c-0.1,1.4-0.2,2.8-0.2,4.1c0.4,7.2,2.5,12.5,6.2,15.8c3.7,3.4,8.4,5.1,14,5.1h9.5c4.3,0,7.6,1.5,9.8,4.6c2.2,3.1,3.3,8.1,3.3,15
	c0,13.3-4.4,19.9-13.1,19.9c-3.9,0-8-0.2-12.1-0.5c-4.1-0.3-8.2-1.1-12.1-2.5c-3.9-1.3-7.6-3.2-11.2-5.7c-3.5-2.5-6.6-5.9-9.2-10.3
	c-6.6,7.8-14.8,13.3-24.7,16.5C820.3,407.9,809.4,409.5,797.7,409.5 M797.5,303.6c-17.9,0-26.8,11-26.8,33c0,12.4,2.2,21.1,6.7,26
	c4.5,4.9,11.2,7.4,20.1,7.4c9.1,0,15.9-2.4,20.3-7.4c4.3-4.9,6.5-13.6,6.5-26C824.3,314.6,815.4,303.6,797.5,303.6"/>
<path class="st0" d="M898.8,407.2c-4.4,0-7.6-1.4-9.8-4.1c-2.2-2.7-3.3-7.6-3.3-14.5c0-13.9,4.4-20.9,13.1-20.9h20.3
	c5.4,0,9.4-1.2,11.9-3.8c2.5-2.5,3.8-7,3.8-13.6v-77.4c0-2.2,1.1-3.3,3.2-3.3h39.3c2.2,0,3.2,1.1,3.2,3.3V366
	c0,14.2-2.9,24.6-8.8,31.2c-5.8,6.6-15.6,10-29.2,10H898.8z M913.8,236.6c-2.2,0-3.3-1.1-3.3-3.3v-32c0-2.2,1.1-3.3,3.3-3.3h32.7
	c2.2,0,3.3,1.1,3.3,3.3v32c0,2.2-1.1,3.3-3.3,3.3H913.8z M964.2,236.6c-2.2,0-3.3-1.1-3.3-3.3v-32c0-2.2,1.1-3.3,3.3-3.3h33
	c2.2,0,3.3,1.1,3.3,3.3v32c0,2.2-1.1,3.3-3.3,3.3H964.2z"/>
<polygon class="st1" points="581.8,276.5 661.9,196.3 608.9,196.3 503,302.2 529.6,328.7 555.3,303 612,363.2 670.6,363.3 "/>
<path class="st2" d="M924.6,547.1c-2.4-0.2-4.8-0.4-7.1-0.7c-12-1.4-23.7-3.9-35-7.2c-3-0.9-6-1.8-8.9-2.9
	c-11.4-3.9-22.3-8.7-32.7-14.3c-2.8-1.5-5.5-3-8.1-4.7c-9.8-5.9-19-12.5-27.7-19.8L721.7,581c1.9,1.7,3.8,3.4,5.8,5.1
	c14,11.9,29,22.7,44.8,32.2c4.1,2.5,8.3,4.9,12.6,7.2c16.1,8.7,33,16.2,50.5,22.2c4.6,1.6,9.2,3,13.8,4.4
	c17.5,5.1,35.5,8.9,54.1,11.1c4.8,0.6,9.6,1.1,14.4,1.4c2.3,0.2,4.6,0.3,6.9,0.5V547.1z"/>
<path class="st3" d="M1081.9,497.6c-8.1,6.8-16.6,12.9-25.6,18.5c-2.7,1.6-5.4,3.2-8.1,4.7c-10.3,5.8-21.2,10.7-32.5,14.7
	c-2.9,1.1-5.9,2-8.9,3c-11.3,3.5-22.9,6-34.9,7.6c-3.1,0.4-6.2,0.8-9.3,1c-0.1,0-0.1,0-0.2,0v118c3.6-0.2,7.1-0.5,10.6-0.8
	c4.8-0.4,9.6-1,14.4-1.6c18.5-2.4,36.5-6.4,53.9-11.7c4.6-1.4,9.2-2.9,13.8-4.6c17.5-6.2,34.3-13.8,50.3-22.8
	c4.2-2.4,8.4-4.8,12.5-7.3c15.7-9.7,30.6-20.6,44.5-32.7c1-0.9,2-1.7,2.9-2.6L1081.9,497.6z"/>
<path class="st1" d="M1267.3,254.3c-4.3-18.1-10.2-35.6-17.3-52.4c-1.9-4.5-3.9-8.9-6-13.2c-8-16.7-17.4-32.6-27.9-47.6
	c-2.8-4-5.7-7.9-8.6-11.7c-5-6.4-10.2-12.7-15.5-18.7l-83.4,83.4c1.9,2.3,3.8,4.7,5.7,7.1c1.9,2.5,3.8,5,5.6,7.6
	c6.8,9.7,12.9,20,18.1,30.8c1.3,2.8,2.6,5.7,3.9,8.6c4.6,10.9,8.4,22.2,11.2,33.9c0.7,3,1.4,6.1,2,9.2c1.4,7.4,2.5,14.9,3.2,22.5
	H1276c-0.9-15.3-2.7-30.4-5.6-45.1C1269.5,263.7,1268.5,259,1267.3,254.3"/>
<path class="st4" d="M1158.1,351.4c-0.6,6.8-1.5,13.5-2.7,20.1c-0.6,3.1-1.2,6.2-1.9,9.2c-2.7,11.7-6.3,23.1-10.8,34
	c-1.2,2.9-2.5,5.8-3.8,8.6c-5.1,10.8-11,21.2-17.7,31c-1.8,2.6-3.6,5.1-5.5,7.6c-2.3,3.1-4.7,6.1-7.2,9l83.4,83.4
	c6.2-7,12.2-14.2,17.8-21.7c2.9-3.9,5.7-7.8,8.5-11.8c10.4-15.1,19.6-31.1,27.4-47.9c2-4.4,4-8.8,5.8-13.3
	c7-16.9,12.6-34.5,16.7-52.6c1.1-4.7,2-9.4,2.9-14.2c2.5-13.5,4.1-27.4,4.9-41.4H1158.1z"/>
<path class="st5" d="M962.3,117.9c2.4,0.2,4.8,0.4,7.1,0.7c12,1.4,23.7,3.9,35,7.2c3,0.9,6,1.8,8.9,2.9c11.4,3.9,22.3,8.7,32.7,14.3
	c2.8,1.5,5.5,3,8.1,4.7c9.8,5.9,19,12.5,27.7,19.8l83.4-83.4c-1.9-1.7-3.8-3.4-5.8-5.1c-14-11.9-29-22.7-44.8-32.2
	c-4.1-2.5-8.3-4.9-12.6-7.2c-16.1-8.7-33-16.2-50.5-22.2c-4.6-1.6-9.2-3-13.8-4.4c-17.5-5.1-35.5-8.9-54.1-11.1
	c-4.8-0.6-9.6-1.1-14.4-1.4c-2.3-0.2-4.6-0.3-6.9-0.5V117.9z"/>
<path class="st6" d="M805.1,167.4c8.1-6.8,16.6-12.9,25.6-18.5c2.7-1.6,5.4-3.2,8.1-4.7c10.3-5.8,21.2-10.7,32.5-14.7
	c2.9-1.1,5.9-2,8.9-3c11.3-3.5,22.9-6,34.9-7.6c3.1-0.4,6.2-0.8,9.3-1c0.1,0,0.1,0,0.2,0V0c-3.6,0.2-7.1,0.5-10.6,0.8
	c-4.8,0.4-9.6,1-14.4,1.6c-18.5,2.4-36.5,6.4-53.9,11.7c-4.6,1.4-9.2,2.9-13.8,4.6c-17.5,6.2-34.3,13.8-50.3,22.8
	c-4.2,2.4-8.4,4.8-12.5,7.3c-15.7,9.7-30.6,20.6-44.5,32.7c-1,0.9-2,1.7-2.9,2.6L805.1,167.4z"/>
</svg>
