<?xml version="1.0" encoding="utf-8"?>
<!-- Generator: Adobe Illustrator 24.0.1, SVG Export Plug-In . SVG Version: 6.00 Build 0)  -->
<svg version="1.1" id="Layer_1" xmlns="http://www.w3.org/2000/svg" xmlns:xlink="http://www.w3.org/1999/xlink" x="0px" y="0px"
	 viewBox="0 0 1366 768" style="enable-background:new 0 0 1366 768;" xml:space="preserve">
<style type="text/css">
	.st0{fill:#FFFFFF;}
</style>
<path class="st0" d="M142.5,350.6c0-2.3,1.1-3.4,3.4-3.4h41c2.3,0,3.4,1.1,3.4,3.4v52.2c0.5,5.7,2.9,10.2,7.3,13.5
	c4.4,3.3,10.6,4.9,18.6,4.9h6.5c4.6,0,8,1.6,10.2,4.8c2.3,3.2,3.4,8.4,3.4,15.7c0,13.9-4.6,20.8-13.6,20.8c-6.8,0-12.9-0.6-18.2-1.9
	c-5.3-1.2-10.1-4.1-14.1-8.7v3.1c0,14.3-2.2,26.5-6.6,36.7c-4.4,10.1-10.5,18.4-18.2,24.9c-7.7,6.5-16.8,11.3-27.4,14.3
	c-10.5,3.1-21.8,4.6-33.9,4.6c-11.8,0-23-1.5-33.5-4.6c-10.6-3.1-19.8-7.8-27.7-14.3c-7.9-6.5-14.2-14.9-18.9-25.2
	c-4.6-10.4-7-22.7-7-37c0-11.4,1.6-23.1,4.9-35.1c3.3-12,7.9-22.8,13.8-32.4c0.9-1.4,2.6-1.7,5.1-1l36.8,11.9
	c1.1,0.5,1.8,1.1,1.9,1.9c0.1,0.8-0.1,1.7-0.5,2.6c-3.2,6.4-6.1,13.5-8.9,21.5c-2.7,8-4.1,16.9-4.1,26.9c0,8,1.1,14.7,3.4,20.1
	c2.3,5.5,5.3,9.9,9,13.3c3.7,3.4,8,5.8,12.6,7.3c4.7,1.5,9.4,2.2,14.2,2.2c11.6,0,20.7-3.2,27.3-9.7c6.6-6.5,9.9-16.8,9.9-30.9
	V350.6z M90,321.3c-2.3,0-3.4-1.1-3.4-3.4v-33.4c0-2.3,1.1-3.4,3.4-3.4h42.3c2.3,0,3.4,1.1,3.4,3.4v33.4c0,2.3-1.1,3.4-3.4,3.4H90z"
	/>
<path class="st0" d="M261.5,322.3c0-2.3,1.1-3.4,3.4-3.4h41c2.3,0,3.4,1.1,3.4,3.4v80.5c0.5,5.7,2.9,10.2,7.3,13.5
	c4.4,3.3,10.6,4.9,18.6,4.9h7.8c4.5,0,7.9,1.6,10.2,4.8c2.3,3.2,3.4,8.4,3.4,15.7c0,13.9-4.6,20.8-13.6,20.8c-8.6,0-16.2-1-22.5-3.1
	c-6.4-2-11.7-6.7-16-14c-3.6,7.3-9,11.9-16.1,14c-7.1,2-16.9,3.1-29.3,3.1H224c-4.5,0-7.9-1.4-10.2-4.3c-2.3-2.8-3.4-8.1-3.4-15.9
	c0-7.7,1.1-13.2,3.2-16.4c2.2-3.2,5.6-4.8,10.4-4.8h21.1c7.3,0,11.8-2.1,13.6-6.3c1.8-4.2,2.7-11.4,2.7-21.7V322.3z M240,532.4
	c-2.3,0-3.4-1.1-3.4-3.4v-33.4c0-2.3,1.1-3.4,3.4-3.4h34.1c2.3,0,3.4,1.1,3.4,3.4v33.4c0,2.3-1.1,3.4-3.4,3.4H240z M292.5,532.4
	c-2.3,0-3.4-1.1-3.4-3.4v-33.4c0-2.3,1.1-3.4,3.4-3.4H327c2.3,0,3.4,1.1,3.4,3.4v33.4c0,2.3-1.1,3.4-3.4,3.4H292.5z"/>
<path class="st0" d="M343.3,462.5c-4.5,0-7.8-1.3-9.7-3.9c-1.9-2.6-2.9-7.7-2.9-15.2c0-8,0.9-13.6,2.7-17.1c1.8-3.4,5.1-5.1,9.9-5.1
	h44c4.5,0,7.9,1.7,10.2,4.9c2.3,3.3,3.4,8.7,3.4,16.2c0,8.4-1.1,13.9-3.2,16.4c-2.2,2.5-5.6,3.8-10.4,3.8H343.3z"/>
<path class="st0" d="M387.3,462.5c-4.5,0-7.8-1.3-9.7-3.9c-1.9-2.6-2.9-7.7-2.9-15.2c0-8,0.9-13.6,2.7-17.1c1.8-3.4,5.1-5.1,9.9-5.1
	h44c4.5,0,7.9,1.7,10.2,4.9c2.3,3.3,3.4,8.7,3.4,16.2c0,8.4-1.1,13.9-3.2,16.4c-2.2,2.5-5.6,3.8-10.4,3.8H387.3z"/>
<path class="st0" d="M431.3,462.5c-4.5,0-7.8-1.3-9.7-3.9c-1.9-2.6-2.9-7.7-2.9-15.2c0-8,0.9-13.6,2.7-17.1c1.8-3.4,5.1-5.1,9.9-5.1
	h44c4.5,0,7.9,1.7,10.2,4.9c2.3,3.3,3.4,8.7,3.4,16.2c0,8.4-1.1,13.9-3.2,16.4c-2.2,2.5-5.6,3.8-10.4,3.8H431.3z"/>
<path class="st0" d="M426.3,462.5c-4.5,0-7.8-1.3-9.7-3.9c-1.9-2.6-2.9-7.7-2.9-15.2c0-8,0.9-13.6,2.7-17.1c1.8-3.4,5.1-5.1,9.9-5.1
	h44c4.5,0,7.9,1.7,10.2,4.9c2.3,3.3,3.4,8.7,3.4,16.2c0,8.4-1.1,13.9-3.2,16.4c-2.2,2.5-5.6,3.8-10.4,3.8H426.3z"/>
<path class="st0" d="M470.3,462.5c-4.5,0-7.8-1.3-9.7-3.9c-1.9-2.6-2.9-7.7-2.9-15.2c0-8,0.9-13.6,2.7-17.1c1.8-3.4,5.1-5.1,9.9-5.1
	h44c4.5,0,7.9,1.7,10.2,4.9c2.3,3.3,3.4,8.7,3.4,16.2c0,8.4-1.1,13.9-3.2,16.4c-2.2,2.5-5.6,3.8-10.4,3.8H470.3z"/>
<path class="st0" d="M514.3,462.5c-4.5,0-7.8-1.3-9.7-3.9c-1.9-2.6-2.9-7.7-2.9-15.2c0-8,0.9-13.6,2.7-17.1c1.8-3.4,5.1-5.1,9.9-5.1
	h44c4.5,0,7.9,1.7,10.2,4.9c2.3,3.3,3.4,8.7,3.4,16.2c0,8.4-1.1,13.9-3.2,16.4c-2.2,2.5-5.6,3.8-10.4,3.8H514.3z"/>
<path class="st0" d="M717.1,416.6c4.7,3.1,11,4.6,18.9,4.6h7.5c4.5,0,7.9,1.6,10.2,4.8c2.3,3.2,3.4,8.4,3.4,15.7
	c0,13.9-4.6,20.8-13.6,20.8c-9.6,0-17.7-1.2-24.6-3.8c-6.8-2.5-12.4-7.7-16.7-15.7c-4.1,7.3-9.8,12.3-17.1,15.2
	c-7.3,2.8-16.1,4.3-26.6,4.3H558.3c-4.5,0-8-1.6-10.2-4.8c-2.3-3.2-3.4-8.9-3.4-17.1c0-7.7,1.1-12.9,3.2-15.5
	c2.2-2.6,5.6-3.9,10.4-3.9h76.4c5.5,0,9.9-0.3,13.3-1c3.4-0.7,6-1.9,7.8-3.6"/>
<path class="st0" d="M849.7,464.8c-12.1,0-23.2-1.5-33.3-4.6c-10.1-3.1-18.6-8.5-25.5-16.2c-2.5,4.1-5.8,7.4-9.9,9.9
	c-4.1,2.5-8.4,4.4-12.8,5.6c-4.4,1.2-8.8,2-13.1,2.4c-4.3,0.3-8.2,0.5-11.6,0.5c-4.6,0-8-1.5-10.2-4.4c-2.3-3-3.4-8.2-3.4-15.7
	c0-7.7,1-13.2,3.1-16.4c2-3.2,5.6-4.8,10.6-4.8h9.9c5.2,0,9.9-2.2,14.1-6.5c4.2-4.3,6.5-12.4,7-24.2v-6.8c0-22.7,6.5-40.2,19.5-52.3
	c13-12.2,31.6-18.2,55.7-18.2c23,0,41.3,6.4,55,19.3c13.7,12.8,20.5,32.2,20.5,58.1c0,1.6-0.1,3.1-0.2,4.6c-0.1,1.5-0.2,2.9-0.2,4.3
	c0.4,7.5,2.6,13,6.5,16.5c3.9,3.5,8.7,5.3,14.7,5.3h9.9c4.5,0,7.9,1.6,10.2,4.8c2.3,3.2,3.4,8.4,3.4,15.7c0,13.9-4.6,20.8-13.6,20.8
	c-4.1,0-8.3-0.2-12.6-0.5c-4.3-0.3-8.5-1.2-12.6-2.6c-4.1-1.4-8-3.4-11.6-6c-3.7-2.6-6.9-6.2-9.6-10.7c-6.8,8.2-15.4,13.9-25.8,17.2
	C873.3,463.2,861.9,464.8,849.7,464.8 M849.5,354.3c-18.6,0-28,11.5-28,34.4c0,13,2.3,22,7,27.1c4.7,5.1,11.6,7.7,21,7.7
	c9.5,0,16.6-2.6,21.1-7.7c4.5-5.1,6.8-14.1,6.8-27.1C877.5,365.8,868.2,354.3,849.5,354.3"/>
<path class="st0" d="M955.2,462.5c-4.5,0-8-1.4-10.2-4.3c-2.3-2.8-3.4-7.9-3.4-15.2c0-14.5,4.6-21.8,13.6-21.8h21.1
	c5.7,0,9.8-1.3,12.4-3.9c2.6-2.6,3.9-7.3,3.9-14.2v-80.8c0-2.3,1.1-3.4,3.4-3.4h41c2.3,0,3.4,1.1,3.4,3.4v97.2
	c0,14.8-3,25.6-9.1,32.6c-6.1,6.9-16.3,10.4-30.5,10.4H955.2z M970.9,284.4c-2.3,0-3.4-1.1-3.4-3.4v-33.4c0-2.3,1.1-3.4,3.4-3.4
	h34.1c2.3,0,3.4,1.1,3.4,3.4V281c0,2.3-1.1,3.4-3.4,3.4H970.9z M1023.5,284.4c-2.3,0-3.4-1.1-3.4-3.4v-33.4c0-2.3,1.1-3.4,3.4-3.4
	h34.4c2.3,0,3.4,1.1,3.4,3.4V281c0,2.3-1.1,3.4-3.4,3.4H1023.5z"/>
<polygon class="st0" points="624.3,326 708,242.4 652.6,242.4 542.1,352.8 569.8,380.6 596.6,353.7 655.8,416.6 717.1,416.6 "/>
<path class="st0" d="M982.2,608.5c-2.5-0.2-5-0.5-7.4-0.8c-12.5-1.5-24.7-4-36.5-7.5c-3.1-0.9-6.3-1.9-9.3-3
	c-11.9-4.1-23.3-9.1-34.1-15c-2.9-1.6-5.7-3.2-8.5-4.9c-10.2-6.1-19.8-13-28.9-20.6l-87.1,87.1c2,1.8,4,3.6,6.1,5.3
	c14.6,12.5,30.2,23.7,46.8,33.6c4.3,2.6,8.7,5.1,13.2,7.5c16.8,9.1,34.4,16.9,52.8,23.2c4.8,1.6,9.6,3.2,14.4,4.6
	c18.2,5.4,37.1,9.3,56.4,11.6c5,0.6,10,1.1,15.1,1.5c2.4,0.2,4.8,0.3,7.2,0.5V608.5z"/>
<path class="st0" d="M1146.3,556.8c-8.4,7.1-17.3,13.5-26.7,19.3c-2.8,1.7-5.6,3.4-8.5,5c-10.8,6-22.1,11.2-33.9,15.4
	c-3.1,1.1-6.2,2.1-9.3,3.1c-11.8,3.6-23.9,6.3-36.4,7.9c-3.2,0.4-6.5,0.8-9.7,1.1c-0.1,0-0.1,0-0.2,0v123.1
	c3.7-0.2,7.4-0.5,11.1-0.8c5-0.4,10.1-1,15-1.7c19.3-2.5,38.1-6.7,56.3-12.2c4.8-1.5,9.6-3.1,14.4-4.8c18.2-6.5,35.8-14.5,52.5-23.8
	c4.4-2.5,8.8-5,13.1-7.7c16.4-10.1,31.9-21.5,46.4-34.2c1-0.9,2-1.8,3.1-2.7L1146.3,556.8z"/>
<path class="st0" d="M1339.9,302.9c-4.5-18.9-10.6-37.2-18.1-54.7c-2-4.7-4.1-9.3-6.2-13.8c-8.4-17.4-18.1-34-29.1-49.7
	c-2.9-4.1-5.9-8.2-9-12.2c-5.2-6.7-10.6-13.2-16.2-19.5l-87.1,87.1c2,2.4,4,4.9,5.9,7.4c2,2.6,3.9,5.2,5.8,7.9
	c7.1,10.1,13.4,20.9,18.8,32.1c1.4,2.9,2.8,5.9,4,8.9c4.8,11.3,8.8,23.2,11.7,35.4c0.8,3.2,1.5,6.4,2.1,9.6
	c1.5,7.7,2.6,15.6,3.3,23.5H1349c-0.9-16-2.9-31.8-5.8-47.1C1342.2,312.7,1341.1,307.8,1339.9,302.9"/>
<path class="st0" d="M1225.9,404.2c-0.6,7.1-1.5,14.1-2.8,21c-0.6,3.2-1.2,6.4-2,9.6c-2.8,12.2-6.6,24.1-11.3,35.5
	c-1.2,3-2.6,6-3.9,9c-5.3,11.3-11.5,22.1-18.5,32.4c-1.8,2.7-3.8,5.3-5.7,7.9c-2.4,3.2-4.9,6.3-7.5,9.4l87.1,87.1
	c6.5-7.3,12.7-14.8,18.6-22.7c3-4,6-8.1,8.8-12.3c10.8-15.8,20.4-32.5,28.6-50c2.1-4.6,4.2-9.2,6.1-13.9c7.3-17.6,13.2-36,17.5-54.9
	c1.1-4.9,2.1-9.9,3.1-14.8c2.6-14.1,4.3-28.6,5.1-43.3H1225.9z"/>
<path class="st0" d="M1021.6,160.5c2.5,0.2,5,0.5,7.4,0.8c12.5,1.5,24.7,4,36.5,7.5c3.1,0.9,6.3,1.9,9.3,3
	c11.9,4.1,23.3,9.1,34.1,15c2.9,1.6,5.7,3.2,8.5,4.9c10.2,6.1,19.8,13,28.9,20.6l87.1-87.1c-2-1.8-4-3.6-6.1-5.3
	c-14.6-12.5-30.2-23.7-46.8-33.6c-4.3-2.6-8.7-5.1-13.2-7.5c-16.8-9.1-34.4-16.9-52.8-23.2c-4.8-1.6-9.6-3.2-14.4-4.6
	c-18.2-5.4-37.1-9.3-56.4-11.6c-5-0.6-10-1.1-15.1-1.5c-2.4-0.2-4.8-0.3-7.2-0.5V160.5z"/>
<path class="st0" d="M857.4,212.2c8.4-7.1,17.3-13.5,26.7-19.3c2.8-1.7,5.6-3.4,8.5-5c10.8-6,22.1-11.2,33.9-15.4
	c3.1-1.1,6.2-2.1,9.3-3.1c11.8-3.6,23.9-6.3,36.4-7.9c3.2-0.4,6.5-0.8,9.7-1.1c0.1,0,0.1,0,0.2,0V37.4c-3.7,0.2-7.4,0.5-11.1,0.8
	c-5,0.4-10.1,1-15,1.7c-19.3,2.5-38.1,6.7-56.3,12.2c-4.8,1.5-9.6,3.1-14.4,4.8c-18.2,6.5-35.8,14.5-52.5,23.8
	c-4.4,2.5-8.8,5-13.1,7.7c-16.4,10.1-31.9,21.5-46.4,34.2c-1,0.9-2,1.8-3.1,2.7L857.4,212.2z"/>
</svg>
